<mxfile host="app.diagrams.net" modified="2024-03-13T06:39:48.484Z" agent="Mozilla/5.0 (X11; Linux x86_64; rv:122.0) Gecko/20100101 Firefox/122.0" etag="iO3IGDjyUoFAs9mzs3em" version="24.0.2" type="github">
  <diagram name="Страница — 1" id="S3UpfY37bpJ4w3DLsQnd">
    <mxGraphModel dx="1195" dy="627" grid="1" gridSize="10" guides="1" tooltips="1" connect="1" arrows="1" fold="1" page="1" pageScale="1" pageWidth="827" pageHeight="1169" math="0" shadow="0">
      <root>
        <mxCell id="0" />
        <mxCell id="1" parent="0" />
        <mxCell id="bszZs-Kzh6Q2ry-nlEX2-1" value="User" style="shape=umlActor;verticalLabelPosition=bottom;verticalAlign=top;html=1;outlineConnect=0;" parent="1" vertex="1">
          <mxGeometry x="40" y="20" width="30" height="60" as="geometry" />
        </mxCell>
        <mxCell id="bszZs-Kzh6Q2ry-nlEX2-4" value="authentication" style="rounded=0;whiteSpace=wrap;html=1;" parent="1" vertex="1">
          <mxGeometry x="160" y="20" width="120" height="60" as="geometry" />
        </mxCell>
        <mxCell id="bszZs-Kzh6Q2ry-nlEX2-5" value="user manager" style="rounded=0;whiteSpace=wrap;html=1;" parent="1" vertex="1">
          <mxGeometry x="320" y="20" width="120" height="60" as="geometry" />
        </mxCell>
        <mxCell id="bszZs-Kzh6Q2ry-nlEX2-6" value="search service" style="rounded=0;whiteSpace=wrap;html=1;" parent="1" vertex="1">
          <mxGeometry x="480" y="20" width="120" height="60" as="geometry" />
        </mxCell>
        <mxCell id="bszZs-Kzh6Q2ry-nlEX2-7" value="registration service" style="rounded=0;whiteSpace=wrap;html=1;" parent="1" vertex="1">
          <mxGeometry x="640" y="20" width="120" height="60" as="geometry" />
        </mxCell>
        <mxCell id="bszZs-Kzh6Q2ry-nlEX2-8" value="booking service" style="rounded=0;whiteSpace=wrap;html=1;" parent="1" vertex="1">
          <mxGeometry x="800" y="20" width="120" height="60" as="geometry" />
        </mxCell>
        <mxCell id="bszZs-Kzh6Q2ry-nlEX2-9" value="" style="rounded=0;whiteSpace=wrap;html=1;" parent="1" vertex="1">
          <mxGeometry x="50" y="120" width="10" height="520" as="geometry" />
        </mxCell>
        <mxCell id="bszZs-Kzh6Q2ry-nlEX2-10" value="" style="rounded=0;whiteSpace=wrap;html=1;" parent="1" vertex="1">
          <mxGeometry x="215" y="120" width="10" height="120" as="geometry" />
        </mxCell>
        <mxCell id="bszZs-Kzh6Q2ry-nlEX2-14" value="&lt;font style=&quot;font-size: 10px;&quot;&gt;input login, password&lt;/font&gt;" style="text;html=1;align=center;verticalAlign=middle;whiteSpace=wrap;rounded=0;" parent="1" vertex="1">
          <mxGeometry x="70" y="120" width="140" height="10" as="geometry" />
        </mxCell>
        <mxCell id="bszZs-Kzh6Q2ry-nlEX2-16" value="" style="rounded=0;whiteSpace=wrap;html=1;" parent="1" vertex="1">
          <mxGeometry x="375" y="140" width="10" height="80" as="geometry" />
        </mxCell>
        <mxCell id="bszZs-Kzh6Q2ry-nlEX2-17" value="" style="endArrow=classic;html=1;rounded=0;exitX=0.903;exitY=0.028;exitDx=0;exitDy=0;exitPerimeter=0;entryX=0.1;entryY=0.04;entryDx=0;entryDy=0;entryPerimeter=0;" parent="1" edge="1">
          <mxGeometry width="50" height="50" relative="1" as="geometry">
            <mxPoint x="59.99999999999997" y="119.99999999999994" as="sourcePoint" />
            <mxPoint x="216.97" y="120.23999999999995" as="targetPoint" />
          </mxGeometry>
        </mxCell>
        <mxCell id="bszZs-Kzh6Q2ry-nlEX2-18" value="" style="endArrow=classic;html=1;rounded=0;entryX=0.1;entryY=0.125;entryDx=0;entryDy=0;entryPerimeter=0;exitX=1;exitY=0.25;exitDx=0;exitDy=0;" parent="1" source="bszZs-Kzh6Q2ry-nlEX2-10" target="bszZs-Kzh6Q2ry-nlEX2-16" edge="1">
          <mxGeometry width="50" height="50" relative="1" as="geometry">
            <mxPoint x="230" y="160" as="sourcePoint" />
            <mxPoint x="378" y="151" as="targetPoint" />
          </mxGeometry>
        </mxCell>
        <mxCell id="bszZs-Kzh6Q2ry-nlEX2-19" value="&lt;span style=&quot;font-size: 10px;&quot;&gt;relaying data&lt;/span&gt;" style="text;html=1;align=center;verticalAlign=middle;whiteSpace=wrap;rounded=0;" parent="1" vertex="1">
          <mxGeometry x="230" y="140" width="140" height="10" as="geometry" />
        </mxCell>
        <mxCell id="bszZs-Kzh6Q2ry-nlEX2-20" value="" style="endArrow=none;dashed=1;html=1;dashPattern=1 3;strokeWidth=2;rounded=0;entryX=0.5;entryY=1;entryDx=0;entryDy=0;exitX=0.5;exitY=0;exitDx=0;exitDy=0;" parent="1" source="bszZs-Kzh6Q2ry-nlEX2-10" target="bszZs-Kzh6Q2ry-nlEX2-4" edge="1">
          <mxGeometry width="50" height="50" relative="1" as="geometry">
            <mxPoint x="270" y="140" as="sourcePoint" />
            <mxPoint x="320" y="90" as="targetPoint" />
          </mxGeometry>
        </mxCell>
        <mxCell id="bszZs-Kzh6Q2ry-nlEX2-21" value="" style="endArrow=none;dashed=1;html=1;dashPattern=1 3;strokeWidth=2;rounded=0;entryX=0.5;entryY=1;entryDx=0;entryDy=0;exitX=0.5;exitY=0;exitDx=0;exitDy=0;" parent="1" source="bszZs-Kzh6Q2ry-nlEX2-16" target="bszZs-Kzh6Q2ry-nlEX2-5" edge="1">
          <mxGeometry width="50" height="50" relative="1" as="geometry">
            <mxPoint x="270" y="140" as="sourcePoint" />
            <mxPoint x="320" y="90" as="targetPoint" />
          </mxGeometry>
        </mxCell>
        <mxCell id="bszZs-Kzh6Q2ry-nlEX2-22" value="accessing the app service" style="html=1;verticalAlign=bottom;endArrow=open;dashed=1;endSize=8;curved=0;rounded=0;exitX=0.043;exitY=0.917;exitDx=0;exitDy=0;exitPerimeter=0;entryX=1;entryY=0.212;entryDx=0;entryDy=0;entryPerimeter=0;" parent="1" source="bszZs-Kzh6Q2ry-nlEX2-10" target="bszZs-Kzh6Q2ry-nlEX2-9" edge="1">
          <mxGeometry x="0.0037" relative="1" as="geometry">
            <mxPoint x="170" y="240" as="sourcePoint" />
            <mxPoint x="90" y="240" as="targetPoint" />
            <mxPoint as="offset" />
          </mxGeometry>
        </mxCell>
        <mxCell id="bszZs-Kzh6Q2ry-nlEX2-23" value="data confirmation &lt;br&gt;successefull message" style="html=1;verticalAlign=bottom;endArrow=open;dashed=1;endSize=8;curved=0;rounded=0;exitX=0.1;exitY=0.875;exitDx=0;exitDy=0;exitPerimeter=0;entryX=1;entryY=0.75;entryDx=0;entryDy=0;" parent="1" source="bszZs-Kzh6Q2ry-nlEX2-16" target="bszZs-Kzh6Q2ry-nlEX2-10" edge="1">
          <mxGeometry x="0.0037" relative="1" as="geometry">
            <mxPoint x="381" y="221" as="sourcePoint" />
            <mxPoint x="240" y="220" as="targetPoint" />
            <mxPoint as="offset" />
          </mxGeometry>
        </mxCell>
        <mxCell id="bszZs-Kzh6Q2ry-nlEX2-26" value="&lt;font style=&quot;font-size: 8px;&quot;&gt;validating login, &lt;br&gt;password&lt;/font&gt;" style="text;html=1;align=center;verticalAlign=middle;whiteSpace=wrap;rounded=0;" parent="1" vertex="1">
          <mxGeometry x="390" y="190" width="60" height="10" as="geometry" />
        </mxCell>
        <mxCell id="bszZs-Kzh6Q2ry-nlEX2-31" value="" style="rounded=0;whiteSpace=wrap;html=1;" parent="1" vertex="1">
          <mxGeometry x="535" y="270" width="10" height="80" as="geometry" />
        </mxCell>
        <mxCell id="bszZs-Kzh6Q2ry-nlEX2-32" value="" style="rounded=0;whiteSpace=wrap;html=1;" parent="1" vertex="1">
          <mxGeometry x="695" y="370" width="10" height="70" as="geometry" />
        </mxCell>
        <mxCell id="bszZs-Kzh6Q2ry-nlEX2-35" value="" style="endArrow=none;dashed=1;html=1;dashPattern=1 3;strokeWidth=2;rounded=0;exitX=0.5;exitY=0;exitDx=0;exitDy=0;" parent="1" source="bszZs-Kzh6Q2ry-nlEX2-31" edge="1">
          <mxGeometry width="50" height="50" relative="1" as="geometry">
            <mxPoint x="539.66" y="150" as="sourcePoint" />
            <mxPoint x="540" y="80" as="targetPoint" />
          </mxGeometry>
        </mxCell>
        <mxCell id="bszZs-Kzh6Q2ry-nlEX2-36" value="" style="endArrow=classic;html=1;rounded=0;entryX=0;entryY=0.25;entryDx=0;entryDy=0;exitX=1.11;exitY=0.327;exitDx=0;exitDy=0;exitPerimeter=0;" parent="1" source="bszZs-Kzh6Q2ry-nlEX2-9" target="bszZs-Kzh6Q2ry-nlEX2-31" edge="1">
          <mxGeometry width="50" height="50" relative="1" as="geometry">
            <mxPoint x="80" y="280" as="sourcePoint" />
            <mxPoint x="217" y="280" as="targetPoint" />
          </mxGeometry>
        </mxCell>
        <mxCell id="bszZs-Kzh6Q2ry-nlEX2-37" value="&lt;font style=&quot;font-size: 10px;&quot;&gt;input wanted car&lt;/font&gt;" style="text;html=1;align=center;verticalAlign=middle;whiteSpace=wrap;rounded=0;" parent="1" vertex="1">
          <mxGeometry x="375" y="390" width="140" height="10" as="geometry" />
        </mxCell>
        <mxCell id="bszZs-Kzh6Q2ry-nlEX2-39" style="edgeStyle=orthogonalEdgeStyle;rounded=0;orthogonalLoop=1;jettySize=auto;html=1;entryX=1.014;entryY=0.404;entryDx=0;entryDy=0;entryPerimeter=0;exitX=1.014;exitY=0.125;exitDx=0;exitDy=0;exitPerimeter=0;" parent="1" edge="1">
          <mxGeometry relative="1" as="geometry">
            <mxPoint x="545.0000000000001" y="321.15000000000003" as="targetPoint" />
            <mxPoint x="545.0000000000001" y="298.82999999999987" as="sourcePoint" />
            <Array as="points">
              <mxPoint x="593.86" y="298.83" />
              <mxPoint x="593.86" y="320.83" />
            </Array>
          </mxGeometry>
        </mxCell>
        <mxCell id="bszZs-Kzh6Q2ry-nlEX2-40" value="&lt;font style=&quot;&quot;&gt;&lt;font style=&quot;font-size: 8px;&quot;&gt;validating&amp;nbsp;search criteria&lt;/font&gt;&lt;br&gt;&lt;/font&gt;" style="text;html=1;align=center;verticalAlign=middle;whiteSpace=wrap;rounded=0;" parent="1" vertex="1">
          <mxGeometry x="570" y="330" width="60" height="20" as="geometry" />
        </mxCell>
        <mxCell id="bszZs-Kzh6Q2ry-nlEX2-41" value="output search results" style="html=1;verticalAlign=bottom;endArrow=open;dashed=1;endSize=8;curved=0;rounded=0;exitX=0.043;exitY=0.861;exitDx=0;exitDy=0;exitPerimeter=0;entryX=1.229;entryY=0.42;entryDx=0;entryDy=0;entryPerimeter=0;" parent="1" source="bszZs-Kzh6Q2ry-nlEX2-31" target="bszZs-Kzh6Q2ry-nlEX2-9" edge="1">
          <mxGeometry x="0.0037" relative="1" as="geometry">
            <mxPoint x="375" y="330" as="sourcePoint" />
            <mxPoint x="70" y="340" as="targetPoint" />
            <mxPoint as="offset" />
          </mxGeometry>
        </mxCell>
        <mxCell id="bszZs-Kzh6Q2ry-nlEX2-43" value="" style="endArrow=none;dashed=1;html=1;dashPattern=1 3;strokeWidth=2;rounded=0;exitX=0.5;exitY=-0.004;exitDx=0;exitDy=0;exitPerimeter=0;" parent="1" source="bszZs-Kzh6Q2ry-nlEX2-9" target="bszZs-Kzh6Q2ry-nlEX2-1" edge="1">
          <mxGeometry width="50" height="50" relative="1" as="geometry">
            <mxPoint x="60" y="120" as="sourcePoint" />
            <mxPoint x="64.58000000000001" y="80" as="targetPoint" />
          </mxGeometry>
        </mxCell>
        <mxCell id="bszZs-Kzh6Q2ry-nlEX2-44" value="" style="rounded=0;whiteSpace=wrap;html=1;" parent="1" vertex="1">
          <mxGeometry x="855" y="390" width="10" height="180" as="geometry" />
        </mxCell>
        <mxCell id="bszZs-Kzh6Q2ry-nlEX2-46" value="" style="endArrow=none;dashed=1;html=1;dashPattern=1 3;strokeWidth=2;rounded=0;exitX=0.5;exitY=0;exitDx=0;exitDy=0;entryX=0.5;entryY=1;entryDx=0;entryDy=0;" parent="1" source="bszZs-Kzh6Q2ry-nlEX2-32" target="bszZs-Kzh6Q2ry-nlEX2-7" edge="1">
          <mxGeometry width="50" height="50" relative="1" as="geometry">
            <mxPoint x="705" y="290" as="sourcePoint" />
            <mxPoint x="705" y="100" as="targetPoint" />
          </mxGeometry>
        </mxCell>
        <mxCell id="bszZs-Kzh6Q2ry-nlEX2-47" value="" style="endArrow=none;dashed=1;html=1;dashPattern=1 3;strokeWidth=2;rounded=0;exitX=0.5;exitY=0;exitDx=0;exitDy=0;entryX=0.5;entryY=1;entryDx=0;entryDy=0;" parent="1" source="bszZs-Kzh6Q2ry-nlEX2-44" target="bszZs-Kzh6Q2ry-nlEX2-8" edge="1">
          <mxGeometry width="50" height="50" relative="1" as="geometry">
            <mxPoint x="865" y="390" as="sourcePoint" />
            <mxPoint x="865" y="100" as="targetPoint" />
          </mxGeometry>
        </mxCell>
        <mxCell id="bszZs-Kzh6Q2ry-nlEX2-48" value="" style="endArrow=classic;html=1;rounded=0;entryX=0;entryY=0.5;entryDx=0;entryDy=0;exitX=1.11;exitY=0.548;exitDx=0;exitDy=0;exitPerimeter=0;" parent="1" source="bszZs-Kzh6Q2ry-nlEX2-9" target="bszZs-Kzh6Q2ry-nlEX2-32" edge="1">
          <mxGeometry width="50" height="50" relative="1" as="geometry">
            <mxPoint x="200" y="410" as="sourcePoint" />
            <mxPoint x="660" y="405" as="targetPoint" />
          </mxGeometry>
        </mxCell>
        <mxCell id="bszZs-Kzh6Q2ry-nlEX2-49" value="&lt;font style=&quot;font-size: 10px;&quot;&gt;input search criteria&lt;/font&gt;" style="text;html=1;align=center;verticalAlign=middle;whiteSpace=wrap;rounded=0;" parent="1" vertex="1">
          <mxGeometry x="235" y="270" width="140" height="10" as="geometry" />
        </mxCell>
        <mxCell id="bszZs-Kzh6Q2ry-nlEX2-51" value="" style="endArrow=classic;html=1;rounded=0;exitX=1;exitY=0.5;exitDx=0;exitDy=0;entryX=0.128;entryY=0.088;entryDx=0;entryDy=0;entryPerimeter=0;" parent="1" source="bszZs-Kzh6Q2ry-nlEX2-32" target="bszZs-Kzh6Q2ry-nlEX2-44" edge="1">
          <mxGeometry width="50" height="50" relative="1" as="geometry">
            <mxPoint x="710" y="410" as="sourcePoint" />
            <mxPoint x="850" y="430" as="targetPoint" />
          </mxGeometry>
        </mxCell>
        <mxCell id="bszZs-Kzh6Q2ry-nlEX2-52" value="&lt;span style=&quot;font-size: 10px;&quot;&gt;send a booking request&lt;/span&gt;" style="text;html=1;align=center;verticalAlign=middle;whiteSpace=wrap;rounded=0;" parent="1" vertex="1">
          <mxGeometry x="710" y="390" width="140" height="10" as="geometry" />
        </mxCell>
        <mxCell id="bszZs-Kzh6Q2ry-nlEX2-54" style="edgeStyle=orthogonalEdgeStyle;rounded=0;orthogonalLoop=1;jettySize=auto;html=1;entryX=1.093;entryY=0.344;entryDx=0;entryDy=0;entryPerimeter=0;exitX=1.093;exitY=0.222;exitDx=0;exitDy=0;exitPerimeter=0;" parent="1" source="bszZs-Kzh6Q2ry-nlEX2-44" target="bszZs-Kzh6Q2ry-nlEX2-44" edge="1">
          <mxGeometry relative="1" as="geometry">
            <mxPoint x="880" y="452" as="targetPoint" />
            <mxPoint x="880" y="430" as="sourcePoint" />
            <Array as="points">
              <mxPoint x="910" y="430" />
              <mxPoint x="910" y="452" />
            </Array>
          </mxGeometry>
        </mxCell>
        <mxCell id="bszZs-Kzh6Q2ry-nlEX2-55" value="&lt;font style=&quot;&quot;&gt;&lt;font style=&quot;font-size: 8px;&quot;&gt;validating&amp;nbsp;the availability&amp;nbsp;&lt;/font&gt;&lt;br&gt;&lt;/font&gt;" style="text;html=1;align=center;verticalAlign=middle;whiteSpace=wrap;rounded=0;" parent="1" vertex="1">
          <mxGeometry x="910" y="440" width="70" height="30" as="geometry" />
        </mxCell>
        <mxCell id="bszZs-Kzh6Q2ry-nlEX2-56" value="output availability&lt;br&gt;confirmation message" style="html=1;verticalAlign=bottom;endArrow=open;dashed=1;endSize=8;curved=0;rounded=0;entryX=0.903;entryY=0.692;entryDx=0;entryDy=0;entryPerimeter=0;exitX=0.5;exitY=0.389;exitDx=0;exitDy=0;exitPerimeter=0;" parent="1" source="bszZs-Kzh6Q2ry-nlEX2-44" edge="1">
          <mxGeometry x="0.0037" relative="1" as="geometry">
            <mxPoint x="850" y="460" as="sourcePoint" />
            <mxPoint x="62.019999999999975" y="459.99999999999994" as="targetPoint" />
            <mxPoint as="offset" />
          </mxGeometry>
        </mxCell>
        <mxCell id="bszZs-Kzh6Q2ry-nlEX2-57" value="" style="endArrow=classic;html=1;rounded=0;entryX=0;entryY=0.75;entryDx=0;entryDy=0;exitX=1.179;exitY=0.779;exitDx=0;exitDy=0;exitPerimeter=0;" parent="1" source="bszZs-Kzh6Q2ry-nlEX2-9" target="bszZs-Kzh6Q2ry-nlEX2-44" edge="1">
          <mxGeometry width="50" height="50" relative="1" as="geometry">
            <mxPoint x="63" y="531" as="sourcePoint" />
            <mxPoint x="710" y="560" as="targetPoint" />
          </mxGeometry>
        </mxCell>
        <mxCell id="bszZs-Kzh6Q2ry-nlEX2-58" value="&lt;font style=&quot;font-size: 10px;&quot;&gt;book wanted car&lt;/font&gt;" style="text;html=1;align=center;verticalAlign=middle;whiteSpace=wrap;rounded=0;" parent="1" vertex="1">
          <mxGeometry x="390" y="510" width="140" height="10" as="geometry" />
        </mxCell>
        <mxCell id="bszZs-Kzh6Q2ry-nlEX2-59" style="edgeStyle=orthogonalEdgeStyle;rounded=0;orthogonalLoop=1;jettySize=auto;html=1;entryX=1.093;entryY=0.344;entryDx=0;entryDy=0;entryPerimeter=0;exitX=1.093;exitY=0.222;exitDx=0;exitDy=0;exitPerimeter=0;" parent="1" edge="1">
          <mxGeometry relative="1" as="geometry">
            <mxPoint x="865" y="552" as="targetPoint" />
            <mxPoint x="865" y="530" as="sourcePoint" />
            <Array as="points">
              <mxPoint x="909" y="530" />
              <mxPoint x="909" y="552" />
            </Array>
          </mxGeometry>
        </mxCell>
        <mxCell id="bszZs-Kzh6Q2ry-nlEX2-61" value="&lt;font style=&quot;&quot;&gt;&lt;font style=&quot;font-size: 8px;&quot;&gt;booking&lt;/font&gt;&lt;br&gt;&lt;/font&gt;" style="text;html=1;align=center;verticalAlign=middle;whiteSpace=wrap;rounded=0;" parent="1" vertex="1">
          <mxGeometry x="910" y="530" width="70" height="30" as="geometry" />
        </mxCell>
        <mxCell id="bszZs-Kzh6Q2ry-nlEX2-62" value="successful booking conformatiom" style="html=1;verticalAlign=bottom;endArrow=open;dashed=1;endSize=8;curved=0;rounded=0;exitX=-0.217;exitY=0.942;exitDx=0;exitDy=0;exitPerimeter=0;entryX=1.317;entryY=0.849;entryDx=0;entryDy=0;entryPerimeter=0;" parent="1" source="bszZs-Kzh6Q2ry-nlEX2-44" target="bszZs-Kzh6Q2ry-nlEX2-9" edge="1">
          <mxGeometry x="0.0037" relative="1" as="geometry">
            <mxPoint x="827" y="560" as="sourcePoint" />
            <mxPoint x="80" y="560" as="targetPoint" />
            <mxPoint as="offset" />
          </mxGeometry>
        </mxCell>
        <mxCell id="bszZs-Kzh6Q2ry-nlEX2-65" value="" style="endArrow=none;dashed=1;html=1;dashPattern=1 3;strokeWidth=2;rounded=0;entryX=0.5;entryY=1;entryDx=0;entryDy=0;" parent="1" target="bszZs-Kzh6Q2ry-nlEX2-10" edge="1">
          <mxGeometry width="50" height="50" relative="1" as="geometry">
            <mxPoint x="220" y="680" as="sourcePoint" />
            <mxPoint x="219.5" y="285" as="targetPoint" />
          </mxGeometry>
        </mxCell>
        <mxCell id="bszZs-Kzh6Q2ry-nlEX2-66" value="" style="endArrow=none;dashed=1;html=1;dashPattern=1 3;strokeWidth=2;rounded=0;entryX=0.5;entryY=1;entryDx=0;entryDy=0;" parent="1" target="bszZs-Kzh6Q2ry-nlEX2-16" edge="1">
          <mxGeometry width="50" height="50" relative="1" as="geometry">
            <mxPoint x="380" y="680" as="sourcePoint" />
            <mxPoint x="360" y="265" as="targetPoint" />
          </mxGeometry>
        </mxCell>
        <mxCell id="bszZs-Kzh6Q2ry-nlEX2-67" value="" style="endArrow=none;dashed=1;html=1;dashPattern=1 3;strokeWidth=2;rounded=0;entryX=0.5;entryY=1;entryDx=0;entryDy=0;" parent="1" target="bszZs-Kzh6Q2ry-nlEX2-31" edge="1">
          <mxGeometry width="50" height="50" relative="1" as="geometry">
            <mxPoint x="540" y="680" as="sourcePoint" />
            <mxPoint x="539.41" y="390" as="targetPoint" />
          </mxGeometry>
        </mxCell>
        <mxCell id="bszZs-Kzh6Q2ry-nlEX2-68" value="" style="endArrow=none;dashed=1;html=1;dashPattern=1 3;strokeWidth=2;rounded=0;entryX=0.5;entryY=1;entryDx=0;entryDy=0;" parent="1" edge="1">
          <mxGeometry width="50" height="50" relative="1" as="geometry">
            <mxPoint x="55" y="680" as="sourcePoint" />
            <mxPoint x="54.58000000000001" y="640" as="targetPoint" />
          </mxGeometry>
        </mxCell>
        <mxCell id="bszZs-Kzh6Q2ry-nlEX2-69" value="" style="endArrow=none;dashed=1;html=1;dashPattern=1 3;strokeWidth=2;rounded=0;entryX=0.5;entryY=1;entryDx=0;entryDy=0;" parent="1" target="bszZs-Kzh6Q2ry-nlEX2-32" edge="1">
          <mxGeometry width="50" height="50" relative="1" as="geometry">
            <mxPoint x="700" y="680" as="sourcePoint" />
            <mxPoint x="695" y="490" as="targetPoint" />
          </mxGeometry>
        </mxCell>
        <mxCell id="bszZs-Kzh6Q2ry-nlEX2-70" value="" style="endArrow=none;dashed=1;html=1;dashPattern=1 3;strokeWidth=2;rounded=0;entryX=0.5;entryY=1;entryDx=0;entryDy=0;" parent="1" target="bszZs-Kzh6Q2ry-nlEX2-44" edge="1">
          <mxGeometry width="50" height="50" relative="1" as="geometry">
            <mxPoint x="860" y="680" as="sourcePoint" />
            <mxPoint x="1040" y="480" as="targetPoint" />
          </mxGeometry>
        </mxCell>
        <mxCell id="UY0TH6I4wztvOWJe15O3-4" style="edgeStyle=orthogonalEdgeStyle;rounded=0;orthogonalLoop=1;jettySize=auto;html=1;entryX=1.014;entryY=0.404;entryDx=0;entryDy=0;entryPerimeter=0;exitX=1.014;exitY=0.125;exitDx=0;exitDy=0;exitPerimeter=0;" edge="1" parent="1">
          <mxGeometry relative="1" as="geometry">
            <mxPoint x="385.0000000000001" y="182.32000000000002" as="targetPoint" />
            <mxPoint x="385.0000000000001" y="159.99999999999986" as="sourcePoint" />
            <Array as="points">
              <mxPoint x="433.86" y="159.99999999999997" />
              <mxPoint x="433.86" y="181.99999999999997" />
            </Array>
          </mxGeometry>
        </mxCell>
      </root>
    </mxGraphModel>
  </diagram>
</mxfile>
